<svg width="1024" height="1024" viewBox="0 0 1024 1024" fill="none" xmlns="http://www.w3.org/2000/svg">
  <defs>
    <linearGradient id="bg" x1="128" y1="96" x2="896" y2="944" gradientUnits="userSpaceOnUse">
      <stop stop-color="#168A82"/>
      <stop offset="1" stop-color="#07514E"/>
    </linearGradient>
    <filter id="shadow" x="176" y="176" width="672" height="672" filterUnits="userSpaceOnUse">
      <feDropShadow dx="0" dy="24" stdDeviation="24" flood-color="#032F2C" flood-opacity="0.24"/>
    </filter>
  </defs>
  <rect x="64" y="64" width="896" height="896" rx="232" fill="url(#bg)"/>
  <path d="M176 512C176 326.4 326.4 176 512 176C697.6 176 848 326.4 848 512C848 697.6 697.6 848 512 848C326.4 848 176 697.6 176 512Z" fill="white" fill-opacity="0.08"/>
  <g filter="url(#shadow)" stroke="white" stroke-linecap="round">
    <circle cx="512" cy="512" r="92" fill="white" stroke-width="28"/>
    <path d="M345 362C307 401 284 454 284 512C284 570 307 623 345 662" stroke-width="52"/>
    <path d="M679 362C717 401 740 454 740 512C740 570 717 623 679 662" stroke-width="52"/>
    <path d="M258 272C198 334 160 418 160 512C160 606 198 690 258 752" stroke-width="52"/>
    <path d="M766 272C826 334 864 418 864 512C864 606 826 690 766 752" stroke-width="52"/>
  </g>
</svg>
